<?xml version="1.0" encoding="UTF-8"?>
<svg version="1.1" xmlns="http://www.w3.org/2000/svg" width="512" height="512">
<path d="M0 0 C168.96 0 337.92 0 512 0 C512 168.96 512 337.92 512 512 C343.04 512 174.08 512 0 512 C0 343.04 0 174.08 0 0 Z " fill="#6455F2" transform="translate(0,0)"/>
<path d="M0 0 C3.78376385 1.66780018 7.30594513 3.7312771 10.875 5.8125 C29.37012703 16.16059535 48.61001183 24.00809733 68.4375 31.375 C69.22739319 31.67018524 70.01728638 31.96537048 70.83111572 32.26950073 C81.45946472 36.22522269 92.13347551 39.56559681 103.09246826 42.47673035 C105.89705064 43.24607684 108.66661731 44.11801585 111.4375 45 C123.58533687 48.78852993 135.90958366 51.94663026 148.41015625 54.32421875 C151 55 151 55 153 57 C152.90234375 59.41796875 152.90234375 59.41796875 152 62 C150.00390625 63.80078125 150.00390625 63.80078125 147.5625 65.3125 C146.35787109 66.08013672 146.35787109 66.08013672 145.12890625 66.86328125 C143 68 143 68 141 68 C141.01488739 75.73697316 141.05653652 83.47341281 141.13209057 91.21002483 C141.16634128 94.80278004 141.19146738 98.39511093 141.19555664 101.98803711 C141.19984401 105.45734108 141.22834016 108.92568823 141.27343178 112.39469337 C141.2926893 114.35822554 141.28705357 116.32195081 141.28105164 118.28556824 C141.10000003 125.37778127 141.10000003 125.37778127 144.48168945 131.22583008 C145.72825317 132.10404419 145.72825317 132.10404419 147 133 C148.60540839 136.21081678 148.48463309 139.51710355 148 143 C145 148.5 145 148.5 142 150 C141.31270746 152.11846285 141.31270746 152.11846285 140.875 154.5625 C140.70742188 155.38878906 140.53984375 156.21507812 140.3671875 157.06640625 C140.24601562 157.70449219 140.12484375 158.34257812 140 159 C134.62686567 160.31343284 134.62686567 160.31343284 132.125 159.0625 C130.32163372 155.75632849 130.81676305 152.72581793 131 149 C130.401875 148.938125 129.80375 148.87625 129.1875 148.8125 C127 148 127 148 125.25 145.875 C123.69138139 142.2901772 123.58441209 139.87882048 124 136 C125.25589589 133.36859909 126.33816354 131.55148453 128.57844543 129.68473816 C130.5398161 127.3602435 130.39654291 125.81108694 130.43237305 122.79418945 C130.45216721 121.73331619 130.47196136 120.67244293 130.49235535 119.579422 C130.49874527 118.43559555 130.50513519 117.2917691 130.51171875 116.11328125 C130.52966995 114.94113571 130.54762115 113.76899017 130.56611633 112.56132507 C130.62036654 108.81175349 130.65416302 105.06231026 130.6875 101.3125 C130.72065999 98.77276854 130.7551484 96.23305405 130.79101562 93.69335938 C130.87610154 87.46235468 130.94438909 81.23133367 131 75 C130.38232254 75.33994995 129.76464508 75.6798999 129.12825012 76.03015137 C126.28084548 77.59545998 123.43145588 79.15712172 120.58203125 80.71875 C119.61076294 81.25338867 118.63949463 81.78802734 117.63879395 82.33886719 C109.24998802 86.93085637 100.71389441 91.06835133 92 95 C91.01773438 95.45375 90.03546875 95.9075 89.0234375 96.375 C83.28125 99 83.28125 99 81 99 C80.84144531 98.43152344 80.68289063 97.86304688 80.51953125 97.27734375 C77.2176297 86.3500563 72.04606816 81.41516685 62 76 C53.23857041 71.66497053 44.59876373 68.78194871 35 67 C33.9790625 66.80664062 32.958125 66.61328125 31.90625 66.4140625 C19.84290841 64.26877753 7.85124929 63.75994251 -4.375 63.75 C-5.12467041 63.74932526 -5.87434082 63.74865051 -6.64672852 63.74795532 C-32.38789304 63.78461681 -60.4625919 66.76179449 -80.93359375 83.9140625 C-84.97171621 87.99035246 -86.72223652 92.49953245 -88 98 C-93.00716489 97.40817336 -97.25902994 95.8182126 -101.8125 93.75 C-102.58021729 93.40356445 -103.34793457 93.05712891 -104.13891602 92.70019531 C-123.41220323 83.85244451 -143.21847777 74.12570505 -160 61 C-159.67 59.35 -159.34 57.7 -159 56 C-154.37252148 54.31584965 -149.69874396 53.19386904 -144.90820312 52.09887695 C-130.36448788 48.76538007 -116.19200612 44.58655817 -102 40 C-100.67555236 39.57603266 -99.35100473 39.15237755 -98.02636719 38.72900391 C-79.98098231 32.94910111 -62.34144129 26.6817284 -45 19 C-44.04528809 18.58363281 -43.09057617 18.16726562 -42.10693359 17.73828125 C-31.81839156 13.24622259 -21.70014823 8.68723444 -12.18359375 2.69116211 C-7.87123018 0.07964127 -4.9951123 -0.80903073 0 0 Z " fill="#FEFDFE" transform="translate(260,60)"/>
<path d="M0 0 C3.68213223 4.50054329 3.03256386 9.58463323 2.89770508 15.13818359 C2.88709297 16.79015244 2.88709297 16.79015244 2.87626648 18.47549438 C2.84835609 21.98094605 2.78561989 25.48478005 2.72192383 28.98974609 C2.6968368 31.37123339 2.67402435 33.7527458 2.65356445 36.13427734 C2.59854039 41.96164893 2.51494639 47.78808192 2.40942383 53.61474609 C0.86617432 53.77910156 0.86617432 53.77910156 -0.70825195 53.94677734 C-8.87766051 54.86174913 -16.61571779 56.0799266 -24.46557617 58.61474609 C-25.40884766 58.90945801 -26.35211914 59.20416992 -27.32397461 59.5078125 C-38.47025002 63.07716627 -49.35875402 67.36655274 -60.22827148 71.69433594 C-68.25778713 74.82282643 -74.22025793 73.83670203 -81.93823242 70.69287109 C-83.09977089 70.24098419 -83.09977089 70.24098419 -84.28477478 69.77996826 C-86.74605884 68.82085653 -89.19989336 67.8443736 -91.65307617 66.86474609 C-107.80393309 60.45811548 -123.2296391 55.48627974 -140.59057617 53.61474609 C-140.74308786 46.62243696 -140.84794299 39.63055885 -140.92016602 32.63696289 C-140.95028276 30.25952119 -140.99118549 27.8821901 -141.04321289 25.50512695 C-141.11624868 22.08175331 -141.15008504 18.65985219 -141.17651367 15.23583984 C-141.20748138 14.17827988 -141.2384491 13.12071991 -141.27035522 12.03111267 C-141.27314445 5.87328252 -140.58112836 2.37970664 -136.18383789 -2.05999756 C-127.30225874 -9.44759057 -115.63219323 -12.10792039 -104.59057617 -14.38525391 C-103.10557617 -14.70623047 -103.10557617 -14.70623047 -101.59057617 -15.03369141 C-71.97062444 -20.97490265 -23.70939056 -21.83024652 0 0 Z " fill="#FEFEFE" transform="translate(325.590576171875,153.38525390625)"/>
<path d="M0 0 C0.97675302 -0.00453111 1.95350604 -0.00906223 2.95985764 -0.01373065 C6.21166529 -0.02632598 9.46330442 -0.02475747 12.71513367 -0.02310181 C15.05477106 -0.02908974 17.39440647 -0.03589589 19.73403931 -0.04345703 C26.07242637 -0.0610885 32.41075941 -0.06581097 38.74916863 -0.0670886 C42.70834619 -0.06851137 46.66751004 -0.07278315 50.62668419 -0.07808304 C63.72358735 -0.09561469 76.82045655 -0.10492449 89.91737149 -0.10342209 C90.62213691 -0.10334218 91.32690234 -0.10326227 92.05302429 -0.10317993 C92.75865185 -0.10309817 93.46427941 -0.10301641 94.19128963 -0.10293217 C105.6467564 -0.1021179 117.10209213 -0.12129707 128.55752096 -0.14945666 C140.32804374 -0.17816234 152.0985025 -0.19199853 163.86906117 -0.19026911 C170.47435488 -0.18975841 177.07949991 -0.19550255 183.68476295 -0.21662521 C189.88923313 -0.23592683 196.09341141 -0.23618752 202.29789162 -0.22159195 C204.57799199 -0.21949331 206.85811026 -0.22426703 209.13817978 -0.23631287 C212.24359065 -0.2516607 215.34798154 -0.24252665 218.45336914 -0.22705078 C219.81575202 -0.24248147 219.81575202 -0.24248147 221.20565778 -0.25822389 C227.27348867 -0.19110185 227.27348867 -0.19110185 230.46506023 2.11083031 C232.46143567 5.09204994 232.56789749 6.75450806 231.90922546 10.26742554 C229.04862382 13.45451347 226.76720668 14.52263597 222.5966053 14.76406097 C220.83772347 14.78298563 219.07852232 14.77983775 217.31965637 14.75949097 C215.86282843 14.76650945 215.86282843 14.76650945 214.37656963 14.77366972 C211.11911934 14.78461077 207.86244012 14.76710321 204.60502625 14.74984741 C202.27084627 14.752033 199.93666739 14.75602931 197.60249329 14.76170349 C192.57422171 14.77027457 187.54616347 14.76647579 182.51790237 14.75328064 C175.24031039 14.7346883 167.96292625 14.74036204 160.68532978 14.75385445 C148.86753673 14.77543468 137.04978962 14.7821498 125.23197937 14.77670288 C124.17132542 14.77622193 124.17132542 14.77622193 123.08924411 14.77573127 C117.35311239 14.77301902 111.61698114 14.76958822 105.88084984 14.76612568 C100.86963795 14.76313086 95.85842602 14.76042246 90.84721375 14.75814819 C90.14158024 14.75782268 89.43594673 14.75749717 88.70893039 14.7571618 C76.93737122 14.75221723 65.16587582 14.76290664 53.39433658 14.78471994 C45.49072711 14.79810647 37.58743987 14.79211455 29.68384957 14.77135468 C24.76687332 14.76237599 19.8500216 14.76983639 14.93305588 14.78176689 C12.65260651 14.78389969 10.37213883 14.77916486 8.09172058 14.76706123 C4.97839852 14.75146835 1.86606534 14.76040934 -1.24723816 14.77536011 C-2.14948336 14.76487121 -3.05172857 14.75438231 -3.98131454 14.74357557 C-9.85535718 14.80638477 -13.26038674 15.87821521 -18.09077454 19.26742554 C-23.48903375 25.10338145 -24.55562865 29.52055444 -24.40327454 37.35726929 C-23.8289486 42.7056796 -20.98266552 45.58383724 -17.15327454 49.01742554 C-12.34772983 52.54802981 -8.62966454 53.51276516 -2.69624329 53.68148804 C-1.4941925 53.72015991 -0.29214172 53.75883179 0.94633484 53.79867554 C2.8151532 53.84508179 2.8151532 53.84508179 4.72172546 53.89242554 C5.98694031 53.93109741 7.25215515 53.96976929 8.55570984 54.00961304 C11.67331221 54.10372934 14.79124866 54.18665995 17.90922546 54.26742554 C17.90922546 58.55742554 17.90922546 62.84742554 17.90922546 67.26742554 C13.57179308 67.41776313 9.23581066 67.5255516 4.89653015 67.59701538 C3.42620882 67.62685822 1.95606021 67.66754987 0.4863739 67.72006226 C-11.54991353 68.13878713 -20.64515087 66.28382348 -30.02827454 58.01742554 C-37.53226636 49.76119981 -39.49474567 40.45582502 -39.36030579 29.61508179 C-38.60318848 20.21146536 -33.88825991 13.55541018 -27.09077454 7.26742554 C-19.01788685 0.73905482 -10.06771339 -0.03475834 0 0 Z " fill="#FDFDFE" transform="translate(160.0907745361328,249.73257446289063)"/>
<path d="M0 0 C0.75728394 0.00202423 1.51456787 0.00404846 2.2947998 0.00613403 C3.06787476 0.00517731 3.84094971 0.00422058 4.63745117 0.00323486 C6.27502524 0.00255313 7.91260199 0.00440697 9.5501709 0.00857544 C12.06536901 0.01392382 14.58038854 0.00863027 17.09558105 0.00222778 C18.68282103 0.00288857 20.2700609 0.00416973 21.8572998 0.00613403 C22.99322571 0.00309769 22.99322571 0.00309769 24.15209961 0 C29.46109849 0.02399522 29.46109849 0.02399522 30.5760498 1.13894653 C30.67037966 3.34762484 30.69347412 5.55936174 30.6895752 7.77005005 C30.68972122 8.46269958 30.68986725 9.15534912 30.6900177 9.86898804 C30.68931855 12.16864099 30.68152609 14.4682139 30.67370605 16.76785278 C30.67184188 18.35826066 30.67041798 19.94866911 30.66941833 21.53907776 C30.66559309 25.73290583 30.65576276 29.92669948 30.64471436 34.12051392 C30.63450037 38.39683568 30.62992074 42.67316298 30.62487793 46.94949341 C30.61414049 55.34599361 30.597064 63.7424658 30.5760498 72.13894653 C28.5960498 72.63394653 28.5960498 72.63394653 26.5760498 73.13894653 C20.1410498 64.72394653 20.1410498 64.72394653 13.5760498 56.13894653 C9.32187691 57.20248976 8.95201592 57.43516722 6.5604248 60.73660278 C5.76765137 61.8145813 5.76765137 61.8145813 4.9588623 62.91433716 C4.42003418 63.66908325 3.88120605 64.42382935 3.3260498 65.20144653 C2.77175293 65.96005981 2.21745605 66.7186731 1.6463623 67.50027466 C0.27997675 69.3731652 -1.07617982 71.25263855 -2.4239502 73.13894653 C-3.7439502 72.80894653 -5.0639502 72.47894653 -6.4239502 72.13894653 C-6.44707544 62.89897102 -6.4648662 53.6590054 -6.47576237 44.4190073 C-6.4809908 40.12894738 -6.48808772 35.8389072 -6.49938965 31.54885864 C-6.51021995 27.41215253 -6.51622733 23.27546545 -6.51882744 19.13874626 C-6.52068143 17.55702349 -6.52430155 15.97530182 -6.52968025 14.39358711 C-6.53689259 12.18571815 -6.53794106 9.97792881 -6.53747559 7.77005005 C-6.5396962 6.51096329 -6.54191681 5.25187653 -6.54420471 3.95463562 C-6.33605908 -0.91897236 -4.36892575 0.01974634 0 0 Z " fill="#FDFDFE" transform="translate(202.4239501953125,285.8610534667969)"/>
<path d="M0 0 C18.07151774 -0.06939911 36.14298986 -0.12295928 54.21461201 -0.15543652 C62.60527897 -0.17091599 70.9958617 -0.19202607 79.38647461 -0.22631836 C86.69836822 -0.25618774 94.01020083 -0.27556714 101.32215375 -0.28226548 C105.19503813 -0.28618195 109.06774801 -0.29540839 112.94057655 -0.31719017 C116.58407497 -0.33751658 120.22732658 -0.34384169 123.87087631 -0.33932304 C125.8491556 -0.34054498 127.82740787 -0.35670721 129.80561829 -0.3732605 C130.97930969 -0.36913651 132.1530011 -0.36501251 133.36225891 -0.36076355 C134.38452733 -0.36352893 135.40679575 -0.36629431 136.460042 -0.36914349 C139 0 139 0 140.82501507 1.33895397 C142.68484577 3.96814888 142.44636168 5.87546824 142 9 C139.91974439 11.69255758 138.73507281 12.86333836 135.35261154 13.49219131 C134.33863926 13.48850414 133.32466698 13.48481697 132.27996826 13.48101807 C131.11331635 13.48651672 129.94666443 13.49201538 128.74465942 13.49768066 C126.8306282 13.47610901 126.8306282 13.47610901 124.87792969 13.45410156 C123.5177514 13.45297301 122.15757067 13.4536071 120.7973938 13.45587158 C117.10745209 13.45701938 113.41803035 13.43350013 109.7282095 13.40557575 C105.87118096 13.38057267 102.01414053 13.37822097 98.15704346 13.37347412 C90.85428923 13.36104109 83.55177449 13.32821519 76.24912572 13.28807616 C67.93483564 13.24336853 59.62053413 13.22137397 51.30615377 13.20129442 C34.20396007 13.15948272 17.10201451 13.08831885 0 13 C0 8.71 0 4.42 0 0 Z " fill="#FEFEFE" transform="translate(250,304)"/>
<path d="M0 0 C4.924994 3.85809158 8.58010853 9.25269412 9.78515625 15.3984375 C10.56087965 23.04658544 9.83581873 29.7453941 5.78515625 36.3984375 C0.63588136 42.31462567 -4.61539707 45.28606383 -12.46484375 45.8359375 C-18.11625727 45.66439375 -22.67966755 43.72679563 -27.21484375 40.3984375 C-33.44664614 33.42235101 -34.64878059 26.69302718 -34.55859375 17.5390625 C-33.86527316 11.20463351 -31.01065238 5.68214425 -26.27734375 1.3984375 C-18.44520349 -3.71642961 -8.31102601 -4.81254483 0 0 Z " fill="#FAF9FE" transform="translate(248.21484375,391.6015625)"/>
<path d="M0 0 C6.2184375 -0.185625 6.2184375 -0.185625 12.5625 -0.375 C13.85615479 -0.42962402 15.14980957 -0.48424805 16.48266602 -0.54052734 C26.02566553 -0.67826288 26.02566553 -0.67826288 30.21484375 2.7734375 C33.6105144 6.18156237 35.28711108 9.55110472 35.3125 14.375 C35.20175342 18.57644855 34.47500865 21.50084984 32 25 C29.38671875 26.16015625 29.38671875 26.16015625 27 27 C27.93493439 28.89709988 28.87306296 30.79262578 29.8125 32.6875 C30.33457031 33.74324219 30.85664063 34.79898438 31.39453125 35.88671875 C32.94289768 38.98369662 32.94289768 38.98369662 34.69921875 41.76953125 C36 44 36 44 36 46 C32.37 46 28.74 46 25 46 C24.50371094 44.92878906 24.00742187 43.85757813 23.49609375 42.75390625 C22.81126267 41.35610035 22.12498859 39.95900077 21.4375 38.5625 C21.11458984 37.85544922 20.79167969 37.14839844 20.45898438 36.41992188 C20.12060547 35.74638672 19.78222656 35.07285156 19.43359375 34.37890625 C18.98584595 33.44413452 18.98584595 33.44413452 18.52905273 32.49047852 C16.50839716 30.22770917 16.50839716 30.22770917 10 30 C10 35.28 10 40.56 10 46 C6.7 46 3.4 46 0 46 C0 30.82 0 15.64 0 0 Z " fill="#F9F9FE" transform="translate(312,390)"/>
<path d="M0 0 C4.62 0 9.24 0 14 0 C15.49444649 4.19475671 16.98812124 8.38977365 18.47998047 12.58544922 C18.98573805 14.00715078 19.49190998 15.42870503 19.99853516 16.85009766 C22.48634487 23.83074393 24.96268467 30.81558664 27.359375 37.828125 C27.67874023 38.76043945 27.99810547 39.69275391 28.32714844 40.65332031 C29 43 29 43 29 46 C25.7 46 22.4 46 19 46 C16 38.375 16 38.375 16 35 C7.585 35.495 7.585 35.495 -1 36 C-2.98 40.95 -2.98 40.95 -5 46 C-8.3 46 -11.6 46 -15 46 C-13.95581422 40.8593931 -12.73031079 36.17108676 -10.8449707 31.26171875 C-9.27180742 27.05085926 -7.90289589 22.76994951 -6.5 18.5 C-4.45654184 12.28039154 -2.34268951 6.11384823 0 0 Z " fill="#FBFBFE" transform="translate(99,390)"/>
<path d="M0 0 C3.3 0 6.6 0 10 0 C10.01401855 1.51352051 10.01401855 1.51352051 10.02832031 3.05761719 C10.0682477 6.80773776 10.13401281 10.55704029 10.20751953 14.30664062 C10.23571347 15.92827837 10.25693594 17.55005313 10.27099609 19.171875 C10.29244872 21.50592105 10.33910575 23.83832261 10.390625 26.171875 C10.39185364 26.89493835 10.39308228 27.61800171 10.39434814 28.36297607 C10.49301309 31.7674709 10.7735848 33.69427277 12.82324219 36.46191406 C16.00695888 38.711512 18.1896185 38.46794159 22 38 C24.87391821 36.82725006 24.87391821 36.82725006 27 35 C28.15839043 31.52482871 28.22801218 28.3272998 28.31640625 24.70703125 C28.33718735 24.00100266 28.35796844 23.29497406 28.37937927 22.56755066 C28.44467491 20.31596449 28.50366647 18.06426338 28.5625 15.8125 C28.60570425 14.2844934 28.64931916 12.75649836 28.69335938 11.22851562 C28.80033574 7.48579438 28.90165922 3.7429577 29 0 C32.3 0 35.6 0 39 0 C39.09954745 4.69557647 39.17178467 9.39052663 39.21972656 14.08691406 C39.23973053 15.68142408 39.26694301 17.27586178 39.30175781 18.87011719 C39.6570977 35.571092 39.6570977 35.571092 35 42 C32.96484375 43.83984375 32.96484375 43.83984375 30.9375 44.9375 C29.93009766 45.50791016 29.93009766 45.50791016 28.90234375 46.08984375 C23.49460544 48.67711896 17.49287842 49.05753239 11.7421875 47.31640625 C6.35661545 44.84887229 2.67736146 41.35472293 0 36 C-0.08675538 33.30106819 -0.11557897 30.62830769 -0.09765625 27.9296875 C-0.0962413 27.13345978 -0.09482635 26.33723206 -0.09336853 25.51687622 C-0.08776345 22.9695462 -0.07521014 20.42230353 -0.0625 17.875 C-0.05748565 16.14974085 -0.05292263 14.42448033 -0.04882812 12.69921875 C-0.03779237 8.46611209 -0.02052436 4.23307086 0 0 Z " fill="#F8F8FE" transform="translate(265,389)"/>
<path d="M0 0 C3.77115421 1.99033139 6.08001764 4.36279072 7.703125 8.27734375 C7.890625 11.08984375 7.890625 11.08984375 7.703125 13.27734375 C4.733125 13.27734375 1.763125 13.27734375 -1.296875 13.27734375 C-1.626875 11.95734375 -1.956875 10.63734375 -2.296875 9.27734375 C-5.98066522 8.09853088 -9.45229073 8.06375574 -13.296875 8.27734375 C-15.58416234 10.11618256 -15.58416234 10.11618256 -15.421875 12.90234375 C-15.380625 13.68609375 -15.339375 14.46984375 -15.296875 15.27734375 C-11.61181668 16.96632881 -8.20118008 18.36645191 -4.234375 19.21484375 C0.55438475 20.33778935 3.93880552 22.68945622 7.578125 25.96484375 C9.39315503 29.6957388 9.31035066 33.21740471 8.703125 37.27734375 C6.82323514 41.60926387 4.63945596 43.58321877 0.515625 45.65234375 C-6.475516 48.38701265 -13.1965315 48.04128609 -20.2109375 45.45703125 C-23.95668906 43.33864741 -26.48707365 40.15244783 -28.296875 36.27734375 C-28.296875 34.62734375 -28.296875 32.97734375 -28.296875 31.27734375 C-24.996875 31.27734375 -21.696875 31.27734375 -18.296875 31.27734375 C-18.008125 32.08171875 -17.719375 32.88609375 -17.421875 33.71484375 C-16.56424932 36.40999055 -16.56424932 36.40999055 -14.296875 37.27734375 C-12.18732438 37.47473098 -12.18732438 37.47473098 -9.859375 37.46484375 C-9.07691406 37.47902344 -8.29445313 37.49320312 -7.48828125 37.5078125 C-5.00481513 37.41820439 -5.00481513 37.41820439 -2.296875 35.27734375 C-2.04656523 32.69354198 -2.04656523 32.69354198 -2.296875 30.27734375 C-2.83054687 30.1071875 -3.36421875 29.93703125 -3.9140625 29.76171875 C-22.81682917 23.61341402 -22.81682917 23.61341402 -26.296875 18.27734375 C-27.25005614 13.93261112 -27.30455303 10.09917224 -25.1171875 6.14453125 C-18.96281478 -1.47668678 -9.24278972 -2.90802058 0 0 Z " fill="#F9F8FE" transform="translate(380.296875,389.72265625)"/>
<path d="M0 0 C4.9351073 2.19442748 8.15677458 5.51549671 10.546875 10.34765625 C11.359375 13.78515625 11.359375 13.78515625 11.546875 16.34765625 C8.16838635 16.6328945 4.9146659 16.79923403 1.546875 16.34765625 C-0.453125 13.97265625 -0.453125 13.97265625 -1.453125 11.34765625 C-3.92348212 8.87729913 -4.8491257 8.99723344 -8.265625 8.91015625 C-12.20299629 8.98412421 -13.21874621 9.17545958 -16.515625 11.59765625 C-20.25298801 16.90230052 -20.12923857 23.03421734 -19.453125 29.34765625 C-17.46344047 33.2584155 -16.08778854 34.92454723 -12.453125 37.34765625 C-7.03781337 37.8371249 -7.03781337 37.8371249 -2.078125 36.09765625 C-0.12394677 34.15746439 -0.12394677 34.15746439 1.546875 30.34765625 C4.846875 30.34765625 8.146875 30.34765625 11.546875 30.34765625 C9.77336901 36.94903964 8.48051583 40.46796802 2.546875 44.34765625 C-2.7998157 47.27320399 -7.46710187 48.3696602 -13.453125 47.34765625 C-19.40763519 45.35098741 -24.24795059 42.66629149 -27.55859375 37.21484375 C-31.04259959 29.94255209 -32.24148786 20.44410662 -29.54296875 12.75390625 C-23.43156536 0.96341739 -12.94037387 -3.44115038 0 0 Z " fill="#F9F9FE" transform="translate(196.453125,389.65234375)"/>
<path d="M0 0 C10.23 0 20.46 0 31 0 C31 2.64 31 5.28 31 8 C23.74 8 16.48 8 9 8 C9 11.63 9 15.26 9 19 C15.6 19 22.2 19 29 19 C29 21.64 29 24.28 29 27 C22.4 27 15.8 27 9 27 C9 30.63 9 34.26 9 38 C16.26 38 23.52 38 31 38 C31 40.64 31 43.28 31 46 C20.77 46 10.54 46 0 46 C0 30.82 0 15.64 0 0 Z " fill="#FCFCFE" transform="translate(396,390)"/>
<path d="M0 0 C3.40982828 2.55737121 5.38608684 5.09559874 7 9 C7.7240587 15.22502418 7.59256429 20.67768253 4 26 C1.2842902 29.28148268 -1.06578818 29.89424017 -5.3125 30.375 C-10.06996825 29.89118967 -11.76367705 28.46211292 -15 25 C-17.52877044 20.05740323 -17.84436432 14.44238787 -17 9 C-13.31976994 0.64081573 -9.00199734 -1.27587364 0 0 Z " fill="#6759F2" transform="translate(241,398)"/>
<path d="M0 0 C3.3 0 6.6 0 10 0 C10 15.51 10 31.02 10 47 C6.7 47 3.4 47 0 47 C0 31.49 0 15.98 0 0 Z " fill="#FBFBFE" transform="translate(134,389)"/>
<path d="M0 0 C10.14938489 -0.48330404 10.14938489 -0.48330404 13.75 1.5625 C15.54963144 5.07178131 15.03774589 7.26411481 14 11 C9.43362969 14.04424687 5.43284541 13.12783166 0 13 C0 8.71 0 4.42 0 0 Z " fill="#6758F2" transform="translate(322,398)"/>
<path d="M0 0 C0.66 0 1.32 0 2 0 C2.83698386 2.45714547 3.66972424 4.91558857 4.5 7.375 C4.73847656 8.07367188 4.97695312 8.77234375 5.22265625 9.4921875 C7 14.7734375 7 14.7734375 7 17 C3.04 17 -0.92 17 -5 17 C-1.85714286 5.28571429 -1.85714286 5.28571429 0 0 Z " fill="#7063F3" transform="translate(105,401)"/>
</svg>
