<svg version="1.1" id="Layer_1" xmlns="http://www.w3.org/2000/svg" xmlns:xlink="http://www.w3.org/1999/xlink" x="0px" y="0px"
	 width="100%" viewBox="0 0 200 200" enable-background="new 0 0 200 200" xml:space="preserve">
<path fill="#14061F" opacity="1.000000" stroke="none" 
	d="
M122.000000,201.000000 
	C81.358452,201.000000 41.216900,201.000000 1.037675,201.000000 
	C1.037675,134.400162 1.037675,67.800285 1.037675,1.100206 
	C67.558044,1.100206 134.116287,1.100206 200.837265,1.100206 
	C200.837265,67.666344 200.837265,134.333145 200.837265,201.000000 
	C174.800568,201.000000 148.650284,201.000000 122.000000,201.000000 
M65.910423,109.093895 
	C65.910423,109.093895 65.826218,109.172691 66.150131,109.692764 
	C66.711311,109.922760 67.272499,110.152756 68.302734,110.863770 
	C70.956009,112.373764 73.609291,113.883751 77.055901,115.845238 
	C77.055901,108.904442 77.055901,102.993797 77.737434,97.191444 
	C82.994064,100.138008 88.250687,103.084572 93.993179,106.303482 
	C93.993179,93.546486 93.993179,81.725121 94.713593,69.955070 
	C98.031197,71.834641 101.264824,73.888443 104.692238,75.540146 
	C107.577560,76.930603 108.544487,78.889862 106.969193,82.387939 
	C106.770302,82.652710 106.399574,82.915878 106.397087,83.182480 
	C106.254517,98.496483 106.142502,113.810783 106.027496,129.125046 
	C106.584572,129.092392 107.141647,129.059738 107.894157,129.819580 
	C107.502228,132.572678 108.406250,134.409546 111.081482,135.718964 
	C115.082634,137.677353 118.871666,140.069107 123.071182,142.815598 
	C123.800430,143.032959 124.529678,143.250320 125.258926,143.467682 
	C125.291512,142.902451 125.324097,142.337204 125.436218,140.870544 
	C125.604492,135.548523 125.772766,130.226486 126.555870,125.230812 
	C131.729721,128.283676 136.903580,131.336548 142.783875,134.806274 
	C142.783875,109.301483 142.848145,85.144142 142.642578,60.989101 
	C142.628525,59.337700 140.970703,57.063202 139.439301,56.158508 
	C120.223694,44.806667 100.900452,33.636639 81.566315,22.486729 
	C80.159065,21.675171 78.454063,21.379911 76.544342,20.727350 
	C76.544342,27.205151 76.544342,32.859680 75.804443,38.225140 
	C70.947403,35.514515 66.090363,32.803890 60.815823,29.570494 
	C60.254955,30.355774 59.206791,31.139355 59.204041,31.926582 
	C59.121765,55.481926 59.091705,79.038025 59.270138,102.592354 
	C59.281281,104.063637 61.053535,105.521561 62.385799,107.394104 
	C63.049065,107.715576 63.712330,108.037041 64.736244,108.850609 
	C65.118629,108.969078 65.501022,109.087547 65.910423,109.093895 
M24.807110,179.147141 
	C24.732201,178.527573 24.657291,177.907990 24.746620,176.393738 
	C24.753424,170.975540 24.851599,165.554565 24.687401,160.141556 
	C24.655807,159.100082 23.594788,158.089828 22.095652,156.869278 
	C20.680815,156.951660 19.265978,157.034027 17.857996,157.116013 
	C17.857996,165.580353 17.857996,173.621506 17.857996,182.403671 
	C20.302227,181.964432 22.421885,181.583511 24.728184,180.477661 
	C24.682001,180.232437 24.635820,179.987228 24.807110,179.147141 
M127.176109,181.412277 
	C132.533371,181.655655 137.890640,181.899017 143.547607,182.156006 
	C143.547607,177.680344 143.713196,173.707016 143.501221,169.753952 
	C143.287720,165.772415 140.982086,162.961365 137.042099,162.681717 
	C133.136185,162.404495 129.160355,163.112518 124.436226,163.442871 
	C125.855659,166.121140 126.535614,167.404114 127.157791,168.578064 
	C130.368820,168.578064 133.322113,168.578064 136.275391,168.578064 
	C136.291428,169.150604 136.307465,169.723160 136.323486,170.295700 
	C134.421097,170.433990 132.371780,170.175003 130.653290,170.810532 
	C128.476974,171.615402 125.571541,172.730011 124.836182,174.487457 
	C124.145752,176.137558 125.871277,178.798569 127.176109,181.412277 
M29.519285,174.416870 
	C29.519285,176.872101 29.519285,179.327332 29.519285,181.868759 
	C32.011074,181.868759 33.950008,181.868759 36.368660,181.868759 
	C36.368660,178.547852 35.927757,175.338120 36.545280,172.346909 
	C36.879280,170.729034 39.020226,169.484207 40.346020,168.071106 
	C41.389267,169.501953 43.092789,170.829758 43.335598,172.385529 
	C43.812168,175.439072 43.475761,178.619522 43.475761,181.888977 
	C45.937778,181.888977 47.872276,181.888977 50.136978,181.888977 
	C50.136978,177.426178 50.338879,173.132278 50.079071,168.866501 
	C49.829109,164.762375 47.118904,162.518631 43.197559,162.279099 
	C39.493076,162.052826 35.729969,162.241119 32.041862,162.670166 
	C31.103996,162.779266 29.774216,164.417603 29.630899,165.488037 
	C29.280447,168.105621 29.518093,170.801926 29.519285,174.416870 
M184.314880,171.731430 
	C183.157135,165.564362 179.916641,162.549683 174.046143,162.178299 
	C168.934250,161.854919 163.674866,164.516922 163.144501,168.931671 
	C162.744003,172.265335 163.564270,176.475845 165.445801,179.179398 
	C168.151535,183.067245 173.033981,183.081451 177.365051,181.767639 
	C181.758255,180.434967 184.227692,177.239700 184.314880,171.731430 
M91.129684,182.317184 
	C97.516953,181.045181 100.652695,178.031570 100.942329,172.886765 
	C101.211151,168.111832 98.501831,164.244995 93.733223,162.798782 
	C89.066879,161.383591 84.254303,161.809479 81.549797,165.859711 
	C79.790131,168.494980 79.091309,172.786591 79.802132,175.906738 
	C80.937050,180.888306 85.487694,182.390854 91.129684,182.317184 
M68.658157,173.078018 
	C68.658157,176.008987 68.658157,178.939972 68.658157,181.822464 
	C71.256332,181.822464 73.168098,181.822464 75.318390,181.822464 
	C75.318390,177.441666 75.594986,173.289688 75.240479,169.192291 
	C74.887016,165.107025 72.925888,162.446915 68.074440,162.925293 
	C65.149544,163.213715 62.115002,162.423828 59.197685,162.741837 
	C57.639576,162.911682 55.022179,164.313751 54.946590,165.315414 
	C54.528900,170.850037 54.746712,176.432602 54.746712,181.925140 
	C57.331356,181.925140 59.140121,181.925140 61.558586,181.925140 
	C61.558586,178.828613 61.170551,175.808365 61.701740,172.959518 
	C62.028938,171.204712 63.759209,169.711517 64.859535,168.100876 
	C66.121124,169.471222 67.382721,170.841568 68.658157,173.078018 
M109.248184,181.823639 
	C114.333389,183.275558 117.296234,181.470840 118.626427,176.267075 
	C119.398117,173.248215 121.128204,170.484360 122.052185,167.490097 
	C122.502853,166.029694 122.095581,164.304535 122.076660,162.699219 
	C120.233032,163.547012 117.750031,163.921371 116.691696,165.350647 
	C114.992813,167.645020 114.236443,170.637283 113.025124,173.466980 
	C109.127495,169.838562 111.208496,160.627777 101.293846,163.177124 
	C103.856567,169.375824 106.296692,175.278000 109.248184,181.823639 
M157.364899,163.160446 
	C156.496964,161.655533 155.629013,160.150604 154.555969,158.290070 
	C153.154922,158.290070 151.221771,158.290070 150.271622,158.290070 
	C148.741455,160.408920 147.334625,161.793137 146.658447,163.471664 
	C146.117447,164.814636 146.123642,167.769409 146.470459,167.863754 
	C150.007553,168.825867 148.688400,171.572327 148.753220,173.624481 
	C149.001892,181.499863 153.497528,184.291077 161.253540,180.960602 
	C160.814774,179.759094 160.467178,177.531250 159.910492,177.477737 
	C153.452637,176.856750 156.238586,172.282608 155.777847,168.933151 
	C157.383041,168.506577 158.720200,168.151245 161.113113,167.515335 
	C159.901581,165.685196 159.071899,164.431900 157.364899,163.160446 
z"/>
<path fill="#D5C5F3" opacity="1.000000" stroke="none" 
	d="
M122.750931,142.276535 
	C118.871666,140.069107 115.082634,137.677353 111.081482,135.718964 
	C108.406250,134.409546 107.502228,132.572678 107.883072,128.960052 
	C107.816597,112.693947 107.761208,97.287361 107.705818,81.880783 
	C108.544487,78.889862 107.577560,76.930603 104.692238,75.540146 
	C101.264824,73.888443 98.031197,71.834641 94.208649,69.626732 
	C88.375931,66.223259 83.048157,63.148129 77.055901,59.689465 
	C77.055901,72.933128 77.055901,85.008141 77.055901,97.083153 
	C77.055901,102.993797 77.055901,108.904442 77.055901,115.845238 
	C73.609291,113.883751 70.956009,112.373764 67.920151,110.343056 
	C66.967117,109.605789 66.396667,109.389244 65.826218,109.172699 
	C65.826218,109.172691 65.910423,109.093895 65.704880,108.915367 
	C65.124763,108.610733 64.750175,108.484627 64.375595,108.358513 
	C63.712330,108.037041 63.049065,107.715576 62.102013,106.782410 
	C61.503780,102.228470 60.916046,98.285927 60.920403,94.344040 
	C60.944073,72.927025 61.113850,51.510174 61.233326,30.093267 
	C66.090363,32.803890 70.947403,35.514515 76.376221,38.574821 
	C91.102211,47.180855 105.195076,55.545609 119.454147,63.616734 
	C122.983452,65.614433 125.751038,67.668037 125.844574,72.280449 
	C125.841751,72.709900 125.862244,72.881371 125.839645,73.516693 
	C125.844719,90.955185 125.892883,107.929825 125.941040,124.904465 
	C125.772766,130.226486 125.604492,135.548523 125.064590,141.346100 
	C124.045616,141.973297 123.398270,142.124908 122.750931,142.276535 
z"/>
<path fill="#8E7BB1" opacity="1.000000" stroke="none" 
	d="
M126.248459,125.067642 
	C125.892883,107.929825 125.844719,90.955185 125.982727,73.408493 
	C126.068565,72.565109 125.968224,72.293785 125.867882,72.022461 
	C125.751038,67.668037 122.983452,65.614433 119.454147,63.616734 
	C105.195076,55.545609 91.102211,47.180855 76.746170,38.719357 
	C76.544342,32.859680 76.544342,27.205151 76.544342,20.727350 
	C78.454063,21.379911 80.159065,21.675171 81.566315,22.486729 
	C100.900452,33.636639 120.223694,44.806667 139.439301,56.158508 
	C140.970703,57.063202 142.628525,59.337700 142.642578,60.989101 
	C142.848145,85.144142 142.783875,109.301483 142.783875,134.806274 
	C136.903580,131.336548 131.729721,128.283676 126.248459,125.067642 
z"/>
<path fill="#8F7DB3" opacity="1.000000" stroke="none" 
	d="
M77.396667,97.137299 
	C77.055901,85.008141 77.055901,72.933128 77.055901,59.689465 
	C83.048157,63.148129 88.375931,66.223259 93.848442,69.601074 
	C93.993179,81.725121 93.993179,93.546486 93.993179,106.303482 
	C88.250687,103.084572 82.994064,100.138008 77.396667,97.137299 
z"/>
<path fill="#CEBFE9" opacity="1.000000" stroke="none" 
	d="
M126.854935,181.213516 
	C125.871277,178.798569 124.145752,176.137558 124.836182,174.487457 
	C125.571541,172.730011 128.476974,171.615402 130.653290,170.810532 
	C132.371780,170.175003 134.421097,170.433990 136.323486,170.295700 
	C136.307465,169.723160 136.291428,169.150604 136.275391,168.578064 
	C133.322113,168.578064 130.368820,168.578064 127.157791,168.578064 
	C126.535614,167.404114 125.855659,166.121140 124.436226,163.442871 
	C129.160355,163.112518 133.136185,162.404495 137.042099,162.681717 
	C140.982086,162.961365 143.287720,165.772415 143.501221,169.753952 
	C143.713196,173.707016 143.547607,177.680344 143.547607,182.156006 
	C137.890640,181.899017 132.533371,181.655655 126.854935,181.213516 
z"/>
<path fill="#D3C3EF" opacity="1.000000" stroke="none" 
	d="
M29.519157,173.941711 
	C29.518093,170.801926 29.280447,168.105621 29.630899,165.488037 
	C29.774216,164.417603 31.103996,162.779266 32.041862,162.670166 
	C35.729969,162.241119 39.493076,162.052826 43.197559,162.279099 
	C47.118904,162.518631 49.829109,164.762375 50.079071,168.866501 
	C50.338879,173.132278 50.136978,177.426178 50.136978,181.888977 
	C47.872276,181.888977 45.937778,181.888977 43.475761,181.888977 
	C43.475761,178.619522 43.812168,175.439072 43.335598,172.385529 
	C43.092789,170.829758 41.389267,169.501953 40.346016,168.071106 
	C39.020226,169.484207 36.879280,170.729034 36.545280,172.346909 
	C35.927757,175.338120 36.368660,178.547852 36.368660,181.868759 
	C33.950008,181.868759 32.011074,181.868759 29.519285,181.868759 
	C29.519285,179.327332 29.519285,176.872101 29.519157,173.941711 
z"/>
<path fill="#D0C1EC" opacity="1.000000" stroke="none" 
	d="
M184.313171,172.102234 
	C184.227692,177.239700 181.758255,180.434967 177.365051,181.767639 
	C173.033981,183.081451 168.151535,183.067245 165.445801,179.179398 
	C163.564270,176.475845 162.744003,172.265335 163.144501,168.931671 
	C163.674866,164.516922 168.934250,161.854919 174.046143,162.178299 
	C179.916641,162.549683 183.157135,165.564362 184.313171,172.102234 
M175.767273,176.077087 
	C175.918777,173.693192 176.344421,171.267059 175.989243,168.961212 
	C175.918655,168.502991 171.992538,167.742661 171.359360,168.459625 
	C170.160980,169.816574 169.106308,172.622162 169.765274,173.937195 
	C170.466629,175.336761 173.222687,175.706665 175.767273,176.077087 
z"/>
<path fill="#D0C1EC" opacity="1.000000" stroke="none" 
	d="
M90.750717,182.339050 
	C85.487694,182.390854 80.937050,180.888306 79.802132,175.906738 
	C79.091309,172.786591 79.790131,168.494980 81.549797,165.859711 
	C84.254303,161.809479 89.066879,161.383591 93.733223,162.798782 
	C98.501831,164.244995 101.211151,168.111832 100.942329,172.886765 
	C100.652695,178.031570 97.516953,181.045181 90.750717,182.339050 
M93.125053,169.353439 
	C89.240005,167.023193 86.437836,167.617508 86.064812,171.111588 
	C85.895248,172.699783 86.503731,174.856415 87.581062,175.932373 
	C88.382812,176.733093 91.489090,176.788345 91.854080,176.167465 
	C92.891319,174.403091 93.049957,172.122177 93.125053,169.353439 
z"/>
<path fill="#D4C4F0" opacity="1.000000" stroke="none" 
	d="
M68.651237,172.644958 
	C67.382721,170.841568 66.121124,169.471222 64.859528,168.100876 
	C63.759209,169.711517 62.028938,171.204712 61.701740,172.959518 
	C61.170551,175.808365 61.558586,178.828613 61.558586,181.925140 
	C59.140121,181.925140 57.331356,181.925140 54.746712,181.925140 
	C54.746712,176.432602 54.528900,170.850037 54.946590,165.315414 
	C55.022179,164.313751 57.639576,162.911682 59.197685,162.741837 
	C62.115002,162.423828 65.149544,163.213715 68.074440,162.925293 
	C72.925888,162.446915 74.887016,165.107025 75.240479,169.192291 
	C75.594986,173.289688 75.318390,177.441666 75.318390,181.822464 
	C73.168098,181.822464 71.256332,181.822464 68.658157,181.822464 
	C68.658157,178.939972 68.658157,176.008987 68.651237,172.644958 
z"/>
<path fill="#D0C1EC" opacity="1.000000" stroke="none" 
	d="
M108.992500,181.501907 
	C106.296692,175.278000 103.856567,169.375824 101.293846,163.177124 
	C111.208496,160.627777 109.127495,169.838562 113.025124,173.466980 
	C114.236443,170.637283 114.992813,167.645020 116.691696,165.350647 
	C117.750031,163.921371 120.233032,163.547012 122.076660,162.699219 
	C122.095581,164.304535 122.502853,166.029694 122.052185,167.490097 
	C121.128204,170.484360 119.398117,173.248215 118.626427,176.267075 
	C117.296234,181.470840 114.333389,183.275558 108.992500,181.501907 
z"/>
<path fill="#CFC0EB" opacity="1.000000" stroke="none" 
	d="
M157.803558,163.169525 
	C159.071899,164.431900 159.901581,165.685196 161.113113,167.515335 
	C158.720200,168.151245 157.383041,168.506577 155.777847,168.933151 
	C156.238586,172.282608 153.452637,176.856750 159.910492,177.477737 
	C160.467178,177.531250 160.814774,179.759094 161.253540,180.960602 
	C153.497528,184.291077 149.001892,181.499863 148.753220,173.624481 
	C148.688400,171.572327 150.007553,168.825867 146.470459,167.863754 
	C146.123642,167.769409 146.117447,164.814636 146.658447,163.471664 
	C147.334625,161.793137 148.741455,160.408920 150.271622,158.290070 
	C151.221771,158.290070 153.154922,158.290070 154.555969,158.290070 
	C155.629013,160.150604 156.496964,161.655533 157.803558,163.169525 
z"/>
<path fill="#BDAED5" opacity="1.000000" stroke="none" 
	d="
M61.024574,29.831881 
	C61.113850,51.510174 60.944073,72.927025 60.920403,94.344040 
	C60.916046,98.285927 61.503780,102.228470 61.912334,106.578209 
	C61.053535,105.521561 59.281281,104.063637 59.270138,102.592354 
	C59.091705,79.038025 59.121765,55.481926 59.204041,31.926582 
	C59.206791,31.139355 60.254955,30.355774 61.024574,29.831881 
z"/>
<path fill="#CCBDE8" opacity="1.000000" stroke="none" 
	d="
M24.541542,181.202606 
	C22.421885,181.583511 20.302227,181.964432 17.857996,182.403671 
	C17.857996,173.621506 17.857996,165.580353 17.857996,157.116013 
	C19.265978,157.034027 20.680815,156.951660 22.542278,157.431396 
	C22.987135,162.122864 22.803974,166.263260 23.054218,170.377274 
	C23.195707,172.703369 24.049454,174.986145 24.582382,177.288422 
	C24.657291,177.907990 24.732201,178.527573 24.509281,179.600372 
	C24.125179,180.188675 23.933983,180.382477 23.970976,180.448563 
	C24.123499,180.720993 24.345243,180.954681 24.541542,181.202606 
z"/>
<path fill="#0E0113" opacity="1.000000" stroke="none" 
	d="
M107.337509,82.134361 
	C107.761208,97.287361 107.816597,112.693947 107.785355,128.563812 
	C107.141647,129.059738 106.584572,129.092392 106.027496,129.125046 
	C106.142502,113.810783 106.254517,98.496483 106.397087,83.182480 
	C106.399574,82.915878 106.770302,82.652710 107.337509,82.134361 
z"/>
<path fill="#E1D2FD" opacity="1.000000" stroke="none" 
	d="
M24.664501,176.841080 
	C24.049454,174.986145 23.195707,172.703369 23.054218,170.377274 
	C22.803974,166.263260 22.987135,162.122864 22.998787,157.529343 
	C23.594788,158.089828 24.655807,159.100082 24.687401,160.141556 
	C24.851599,165.554565 24.753424,170.975540 24.664501,176.841080 
z"/>
<path fill="#8E7BB1" opacity="1.000000" stroke="none" 
	d="
M122.911057,142.546066 
	C123.398270,142.124908 124.045616,141.973297 125.024811,141.796814 
	C125.324097,142.337204 125.291512,142.902451 125.258926,143.467682 
	C124.529678,143.250320 123.800430,143.032959 122.911057,142.546066 
z"/>
<path fill="#BDAED5" opacity="1.000000" stroke="none" 
	d="
M65.988174,109.432732 
	C66.396667,109.389244 66.967117,109.605789 67.685623,110.102547 
	C67.272499,110.152756 66.711311,109.922760 65.988174,109.432732 
z"/>
<path fill="#BDAED5" opacity="1.000000" stroke="none" 
	d="
M64.555923,108.604561 
	C64.750175,108.484627 65.124763,108.610733 65.691376,108.971420 
	C65.501022,109.087547 65.118629,108.969078 64.555923,108.604561 
z"/>
<path fill="#E1D2FD" opacity="1.000000" stroke="none" 
	d="
M24.634865,180.840134 
	C24.345243,180.954681 24.123499,180.720993 23.970976,180.448563 
	C23.933983,180.382477 24.125179,180.188675 24.400547,179.897797 
	C24.635820,179.987228 24.682001,180.232437 24.634865,180.840134 
z"/>
<path fill="#8A78AC" opacity="1.000000" stroke="none" 
	d="
M125.844574,72.280449 
	C125.968224,72.293785 126.068565,72.565109 126.025826,72.944641 
	C125.862244,72.881371 125.841751,72.709900 125.844574,72.280449 
z"/>
<path fill="#1B0F27" opacity="1.000000" stroke="none" 
	d="
M175.424438,176.301620 
	C173.222687,175.706665 170.466629,175.336761 169.765274,173.937195 
	C169.106308,172.622162 170.160980,169.816574 171.359360,168.459625 
	C171.992538,167.742661 175.918655,168.502991 175.989243,168.961212 
	C176.344421,171.267059 175.918777,173.693192 175.424438,176.301620 
z"/>
<path fill="#1C0F28" opacity="1.000000" stroke="none" 
	d="
M93.339760,169.699036 
	C93.049957,172.122177 92.891319,174.403091 91.854080,176.167465 
	C91.489090,176.788345 88.382812,176.733093 87.581062,175.932373 
	C86.503731,174.856415 85.895248,172.699783 86.064812,171.111588 
	C86.437836,167.617508 89.240005,167.023193 93.339760,169.699036 
z"/>
</svg>